<?xml version="1.0" encoding="UTF-8"?>
<svg width="1500px" height="574px" viewBox="0 0 1500 574" version="1.1" xmlns="http://www.w3.org/2000/svg" xmlns:xlink="http://www.w3.org/1999/xlink">
    <title>Artboard Copy 33</title>
    <defs>
        <linearGradient x1="50%" y1="0%" x2="50%" y2="69.3892045%" id="linearGradient-1">
            <stop stop-color="#6366F1" offset="0%"></stop>
            <stop stop-color="#A855F7" offset="49.923514%"></stop>
            <stop stop-color="#EC4899" offset="100%"></stop>
        </linearGradient>
        <path d="M438.086,484 L419.05935,573.549258 L0,573.549258 L18.718,484 L438.086,484 Z M999.279,484 L980.378275,573.549258 L829.454157,573.549258 L794.488,484 L999.279,484 Z M662.774,484 L644.580314,573.549258 L488.529015,573.549258 L507.305,484 L662.774,484 Z M1488.243,484 L1469.2168,573.549258 L1050.15744,573.549258 L1068.875,484 L1488.243,484 Z M209.025,363 L195.236315,428.668466 L449.842555,428.669525 L444.672,453 L25.198,453 L44.011,363 L209.025,363 Z M687.359,363 L669.073,453 L513.805,453 L532.676,363 L687.359,363 Z M1024.819,363 L1005.823,453 L782.384,453 L747.242,363 L1024.819,363 Z M1259.182,363 L1245.39376,428.668466 L1500,428.669525 L1494.829,453 L1075.355,453 L1094.168,363 L1259.182,363 Z M234.432,242 L215.534,332 L50.491,332 L69.304,242 L234.432,242 Z M1050.359,242 L1031.363,332 L735.137,332 L707.854288,262.127622 L693.657,332 L539.176,332 L558.047,242 L855.794,242 L883.631831,315.036057 L898.267,242 L1050.359,242 Z M1284.59,242 L1265.691,332 L1100.648,332 L1119.461,242 L1284.59,242 Z M259.84,121 L240.942,211 L75.784,211 L94.596,121 L259.84,121 Z M809.675,121 L843.978,211 L564.547,211 L583.417,121 L809.675,121 Z M1075.899,121 L1056.902,211 L904.48,211 L922.516,121 L1075.899,121 Z M1309.997,121 L1291.099,211 L1125.941,211 L1144.753,121 L1309.997,121 Z M285.24761,0 L266.349,90 L101.076,90 L119.889424,0 L285.24761,0 Z M763.556486,0 L797.859,90 L589.917,90 L608.788506,0 L763.556486,0 Z M1101.4395,0 L1082.442,90 L928.728,90 L946.764754,0 L1101.4395,0 Z M1335.40506,0 L1316.507,90 L1151.233,90 L1170.04687,0 L1335.40506,0 Z" id="path-2"></path>
    </defs>
    <g id="Artboard-Copy-33" stroke="none" stroke-width="1" fill="none" fill-rule="evenodd">
        <mask id="mask-3" fill="white">
            <use xlink:href="#path-2"></use>
        </mask>
        <use id="Combined-Shape" fill="url(#linearGradient-1)" xlink:href="#path-2"></use>
    </g>
</svg>